<svg id="Group_21" data-name="Group 21" xmlns="http://www.w3.org/2000/svg" width="109.184" height="20.472" viewBox="0 0 109.184 20.472">
  <g id="vuesax_linear_star" data-name="vuesax/linear/star">
    <g id="star" transform="translate(0 0)">
      <path id="Vector" d="M10,1.222l1.5,3a1.854,1.854,0,0,0,1.211.9l2.721.452c1.74.29,2.15,1.552.9,2.8l-2.115,2.115a1.852,1.852,0,0,0-.444,1.544l.606,2.619c.478,2.073-.623,2.875-2.457,1.791l-2.55-1.51a1.844,1.844,0,0,0-1.689,0l-2.55,1.51c-1.825,1.083-2.934.273-2.457-1.791l.606-2.619a1.852,1.852,0,0,0-.444-1.544L.724,8.37c-1.245-1.245-.844-2.508.9-2.8L4.341,5.12a1.858,1.858,0,0,0,1.2-.9l1.5-3C7.864-.407,9.194-.407,10,1.222Z" transform="translate(1.707 1.772)" fill="#f2d2bd"/>
      <path id="Vector-2" data-name="Vector" d="M0,0H20.472V20.472H0Z" fill="#f2d2bd" opacity="0"/>
    </g>
  </g>
  <g id="vuesax_linear_star-2" data-name="vuesax/linear/star" transform="translate(22.178)">
    <g id="star-2" data-name="star" transform="translate(0 0)">
      <path id="Vector-3" data-name="Vector" d="M10,1.222l1.5,3a1.854,1.854,0,0,0,1.211.9l2.721.452c1.74.29,2.15,1.552.9,2.8l-2.115,2.115a1.852,1.852,0,0,0-.444,1.544l.606,2.619c.478,2.073-.623,2.875-2.457,1.791l-2.55-1.51a1.844,1.844,0,0,0-1.689,0l-2.55,1.51c-1.825,1.083-2.934.273-2.457-1.791l.606-2.619a1.852,1.852,0,0,0-.444-1.544L.724,8.37c-1.245-1.245-.844-2.508.9-2.8L4.341,5.12a1.858,1.858,0,0,0,1.2-.9l1.5-3C7.864-.407,9.194-.407,10,1.222Z" transform="translate(1.707 1.772)" fill="#f2d2bd"/>
      <path id="Vector-4" data-name="Vector" d="M0,0H20.472V20.472H0Z" fill="#f2d2bd" opacity="0"/>
    </g>
  </g>
  <g id="vuesax_linear_star-3" data-name="vuesax/linear/star" transform="translate(44.356)">
    <g id="star-3" data-name="star" transform="translate(0 0)">
      <path id="Vector-5" data-name="Vector" d="M10,1.222l1.5,3a1.854,1.854,0,0,0,1.211.9l2.721.452c1.74.29,2.15,1.552.9,2.8l-2.115,2.115a1.852,1.852,0,0,0-.444,1.544l.606,2.619c.478,2.073-.623,2.875-2.457,1.791l-2.55-1.51a1.844,1.844,0,0,0-1.689,0l-2.55,1.51c-1.825,1.083-2.934.273-2.457-1.791l.606-2.619a1.852,1.852,0,0,0-.444-1.544L.724,8.37c-1.245-1.245-.844-2.508.9-2.8L4.341,5.12a1.858,1.858,0,0,0,1.2-.9l1.5-3C7.864-.407,9.194-.407,10,1.222Z" transform="translate(1.707 1.772)" fill="#f2d2bd"/>
      <path id="Vector-6" data-name="Vector" d="M0,0H20.472V20.472H0Z" fill="#f2d2bd" opacity="0"/>
    </g>
  </g>
  <g id="vuesax_linear_star-4" data-name="vuesax/linear/star" transform="translate(66.534)">
    <g id="star-4" data-name="star" transform="translate(0 0)">
      <path id="Vector-7" data-name="Vector" d="M10,1.222l1.5,3a1.854,1.854,0,0,0,1.211.9l2.721.452c1.74.29,2.15,1.552.9,2.8l-2.115,2.115a1.852,1.852,0,0,0-.444,1.544l.606,2.619c.478,2.073-.623,2.875-2.457,1.791l-2.55-1.51a1.844,1.844,0,0,0-1.689,0l-2.55,1.51c-1.825,1.083-2.934.273-2.457-1.791l.606-2.619a1.852,1.852,0,0,0-.444-1.544L.724,8.37c-1.245-1.245-.844-2.508.9-2.8L4.341,5.12a1.858,1.858,0,0,0,1.2-.9l1.5-3C7.864-.407,9.194-.407,10,1.222Z" transform="translate(1.707 1.772)" fill="#f2d2bd"/>
      <path id="Vector-8" data-name="Vector" d="M0,0H20.472V20.472H0Z" fill="#f2d2bd" opacity="0"/>
    </g>
  </g>
  <g id="vuesax_linear_star-5" data-name="vuesax/linear/star" transform="translate(88.712)">
    <g id="star-5" data-name="star" transform="translate(0 0)">
      <path id="Vector-9" data-name="Vector" d="M10,1.222l1.5,3a1.854,1.854,0,0,0,1.211.9l2.721.452c1.74.29,2.15,1.552.9,2.8l-2.115,2.115a1.852,1.852,0,0,0-.444,1.544l.606,2.619c.478,2.073-.623,2.875-2.457,1.791l-2.55-1.51a1.844,1.844,0,0,0-1.689,0l-2.55,1.51c-1.825,1.083-2.934.273-2.457-1.791l.606-2.619a1.852,1.852,0,0,0-.444-1.544L.724,8.37c-1.245-1.245-.844-2.508.9-2.8L4.341,5.12a1.858,1.858,0,0,0,1.2-.9l1.5-3C7.864-.407,9.194-.407,10,1.222Z" transform="translate(1.707 1.772)" fill="#f2d2bd"/>
      <path id="Vector-10" data-name="Vector" d="M0,0H20.472V20.472H0Z" fill="#f2d2bd" opacity="0"/>
    </g>
  </g>
</svg>
